<svg xmlns="http://www.w3.org/2000/svg" viewBox="0 0 147.57600000000002 12.312" width="147.57600000000002" height="12.312"><path fill="#000000" fill-rule="nonzero" d="M4.70 12.31Q3.38 12.31 2.32 12.05Q1.25 11.78 0 11.26L0 11.26Q0.26 9.65 0.19 8.47L0.19 8.47Q0.72 8.30 1.49 8.30L1.49 8.30Q1.54 9.79 2.44 10.46Q3.34 11.14 4.97 11.14L4.97 11.14Q6.36 11.14 7.16 10.70Q7.97 10.27 7.97 9.55L7.97 9.55Q7.97 9.05 7.57 8.68Q7.18 8.30 6.61 8.05Q6.05 7.80 4.97 7.42L4.97 7.42Q3.48 6.91 2.58 6.47Q1.68 6.02 1.02 5.24Q0.36 4.46 0.36 3.29L0.36 3.29Q0.36 1.68 1.57 0.84Q2.78 0 4.90 0L4.90 0Q6.02 0 7.14 0.22Q8.26 0.43 8.88 0.77L8.88 0.77Q8.86 1.03 8.86 1.58L8.86 1.58Q8.86 2.66 9 3.29L9 3.29Q8.50 3.55 7.68 3.55L7.68 3.55Q7.34 2.18 6.59 1.64Q5.83 1.10 4.73 1.10L4.73 1.10Q3.67 1.10 3.01 1.46Q2.35 1.82 2.35 2.52L2.35 2.52Q2.35 3.31 3.12 3.79Q3.89 4.27 5.52 4.85L5.52 4.85Q6.91 5.33 7.80 5.76Q8.69 6.19 9.31 6.92Q9.94 7.66 9.94 8.76L9.94 8.76Q9.94 10.34 8.64 11.33Q7.34 12.31 4.70 12.31L4.70 12.31ZM24.17 0.10Q24.10 1.39 24.34 3.22L24.34 3.22Q23.83 3.43 23.16 3.43L23.16 3.43Q23.11 2.28 22.55 1.73Q21.98 1.18 20.78 1.18L20.78 1.18L19.73 1.18L19.73 9.41Q19.73 10.15 19.86 10.50Q19.99 10.85 20.34 10.99Q20.69 11.14 21.41 11.18L21.41 11.18Q21.53 11.47 21.53 12.19L21.53 12.19Q19.75 12.14 18.62 12.14L18.62 12.14Q17.23 12.14 15.65 12.19L15.65 12.19Q15.65 11.47 15.77 11.18L15.77 11.18Q16.49 11.14 16.86 10.99Q17.23 10.85 17.38 10.49Q17.52 10.13 17.52 9.41L17.52 9.41L17.52 1.18L16.54 1.18Q15.58 1.18 15.06 1.43Q14.54 1.68 14.30 2.14Q14.06 2.59 13.90 3.43L13.90 3.43Q13.13 3.43 12.77 3.22L12.77 3.22Q13.13 1.58 13.13 0.10L13.13 0.10Q14.38 0.14 18.62 0.14L18.62 0.14Q22.94 0.14 24.17 0.10L24.17 0.10ZM37.10 9.34Q37.75 10.30 38.44 10.69Q39.12 11.09 40.13 11.14L40.13 11.14Q40.13 11.83 40.03 12.14L40.03 12.14Q37.99 12.14 36.58 12.31L36.58 12.31Q36.41 12.02 35.93 11.30L35.93 11.30L34.85 9.55Q33.96 8.06 32.50 7.13L32.50 7.13L31.73 7.15L31.03 7.13L31.03 9.31Q31.03 10.10 31.15 10.49Q31.27 10.87 31.55 11.02Q31.82 11.16 32.40 11.18L32.40 11.18Q32.50 11.47 32.50 12.19L32.50 12.19Q31.61 12.14 29.88 12.14L29.88 12.14Q28.61 12.14 27.26 12.19L27.26 12.19Q27.26 11.52 27.38 11.18L27.38 11.18Q27.98 11.14 28.28 10.99Q28.58 10.85 28.70 10.49Q28.82 10.13 28.82 9.41L28.82 9.41L28.82 2.90Q28.82 1.87 28.54 1.54Q28.25 1.20 27.38 1.15L27.38 1.15Q27.26 0.79 27.26 0.10L27.26 0.10Q28.18 0.14 29.90 0.14L29.90 0.14L31.63 0.12Q32.88 0.07 33.53 0.07L33.53 0.07Q35.83 0.07 37.01 0.96Q38.18 1.85 38.18 3.24L38.18 3.24Q38.18 4.63 37.30 5.53Q36.41 6.43 34.82 6.74L34.82 6.74Q35.42 7.10 35.82 7.57Q36.22 8.04 37.10 9.34L37.10 9.34ZM31.94 5.95Q33.67 5.95 34.78 5.34Q35.88 4.73 35.88 3.55L35.88 3.55Q35.88 1.10 32.52 1.10L32.52 1.10Q31.75 1.10 31.03 1.25L31.03 1.25L31.03 5.88Q31.54 5.95 31.94 5.95L31.94 5.95ZM52.85 8.74Q53.50 8.86 53.90 9.26L53.90 9.26Q53.47 10.39 53.26 12.17L53.26 12.17L48.62 12.14Q45.17 12.14 43.06 12.19L43.06 12.19Q43.06 11.45 43.18 11.11L43.18 11.11Q43.78 11.06 44.08 10.92Q44.38 10.78 44.50 10.39Q44.62 10.01 44.62 9.24L44.62 9.24L44.62 2.93Q44.62 2.23 44.48 1.87Q44.35 1.51 44.05 1.37Q43.75 1.22 43.18 1.18L43.18 1.18Q43.06 0.82 43.06 0.10L43.06 0.10Q44.78 0.14 46.82 0.14L46.82 0.14Q51.24 0.14 52.73 0.10L52.73 0.10Q52.99 2.35 53.18 3.07L53.18 3.07Q52.78 3.34 52.10 3.34L52.10 3.34Q52.01 2.33 51.28 1.75Q50.54 1.18 48.70 1.18L48.70 1.18L46.82 1.18L46.82 5.59L48.02 5.59Q49.30 5.59 49.79 5.30Q50.28 5.02 50.30 4.25L50.30 4.25Q50.83 4.08 51.41 4.08L51.41 4.08Q51.36 4.68 51.36 6.10L51.36 6.10Q51.36 7.63 51.41 8.18L51.41 8.18Q50.76 8.18 50.35 8.04L50.35 8.04Q50.28 7.25 49.79 6.96Q49.30 6.67 48.02 6.67L48.02 6.67L46.82 6.67L46.82 9.19Q46.82 9.96 46.98 10.36Q47.14 10.75 47.53 10.91Q47.93 11.06 48.72 11.06L48.72 11.06L48.86 11.06Q50.26 11.06 51.01 10.82Q51.77 10.58 52.14 10.12Q52.51 9.65 52.85 8.74L52.85 8.74ZM69.43 11.11Q69.55 11.47 69.55 12.19L69.55 12.19Q68.59 12.14 67.08 12.14L67.08 12.14Q65.50 12.14 64.54 12.19L64.54 12.19Q64.54 11.45 64.68 11.11L64.68 11.11Q65.23 11.04 65.46 10.91Q65.69 10.78 65.69 10.51L65.69 10.51Q65.69 10.30 65.45 9.77L65.45 9.77L64.97 8.74Q61.51 8.74 59.52 8.86L59.52 8.86L59.26 9.48Q59.02 10.03 59.02 10.34L59.02 10.34Q59.02 11.02 60 11.11L60 11.11Q60.14 11.54 60.14 12.19L60.14 12.19Q59.23 12.14 58.15 12.14L58.15 12.14Q57.22 12.14 56.45 12.19L56.45 12.19Q56.45 11.62 56.59 11.11L56.59 11.11Q57.12 11.02 57.41 10.67Q57.70 10.32 58.18 9.26L58.18 9.26L62.30 0.12Q62.76 0.02 63.26 0.02L63.26 0.02L67.68 9.19Q68.21 10.30 68.58 10.68Q68.95 11.06 69.43 11.11L69.43 11.11ZM60 7.75L64.49 7.75L63.05 4.73Q62.42 3.46 62.18 2.71L62.18 2.71Q61.99 3.31 61.72 3.90Q61.44 4.49 61.37 4.63L61.37 4.63L60 7.75ZM89.78 11.18Q89.90 11.57 89.90 12.19L89.90 12.19Q88.61 12.14 87.22 12.14L87.22 12.14Q85.97 12.14 84.58 12.19L84.58 12.19Q84.58 11.71 84.70 11.18L84.70 11.18Q85.49 11.11 85.78 10.88Q86.06 10.66 86.06 10.01L86.06 10.01Q86.06 9.84 85.97 8.98L85.97 8.98L85.22 3.26L80.95 11.83Q80.57 11.98 80.02 11.98L80.02 11.98L75.58 3.31L74.90 8.38Q74.83 9.02 74.83 9.48L74.83 9.48Q74.83 10.42 75.16 10.78Q75.48 11.14 76.27 11.18L76.27 11.18Q76.39 11.57 76.39 12.19L76.39 12.19Q75.10 12.14 74.11 12.14L74.11 12.14Q73.06 12.14 71.95 12.19L71.95 12.19Q71.95 11.57 72.07 11.18L72.07 11.18Q72.65 11.14 72.97 10.90Q73.30 10.66 73.48 10.07Q73.66 9.48 73.78 8.33L73.78 8.33L74.45 3.05Q74.47 2.88 74.47 2.57L74.47 2.57Q74.47 1.75 74.15 1.46Q73.82 1.18 73.03 1.18L73.03 1.18Q72.91 0.74 72.91 0.10L72.91 0.10Q73.82 0.14 74.66 0.14L74.66 0.14Q75.34 0.14 76.39 0.10L76.39 0.10L81.07 9.10L85.51 0.10Q86.57 0.14 87.31 0.14L87.31 0.14Q87.89 0.14 89.04 0.10L89.04 0.10Q89.04 0.79 88.92 1.18L88.92 1.18Q88.20 1.18 87.84 1.50Q87.48 1.82 87.48 2.59L87.48 2.59Q87.48 2.90 87.50 3.10L87.50 3.10L88.25 8.76Q88.39 9.79 88.55 10.27Q88.70 10.75 88.98 10.94Q89.26 11.14 89.78 11.18L89.78 11.18ZM102.48 9.19Q103.18 9.96 104.06 10.51Q104.95 11.06 105.77 11.11L105.77 11.11Q105.77 11.78 105.65 12.14L105.65 12.14Q103.58 12.14 102.34 12.29L102.34 12.29Q101.45 11.16 99.86 9.48Q98.28 7.80 96.82 6.43L96.82 6.43L96.82 9.34Q96.82 10.37 97.12 10.72Q97.42 11.06 98.28 11.11L98.28 11.11Q98.38 11.47 98.38 12.19L98.38 12.19Q96.74 12.14 95.74 12.14L95.74 12.14Q94.54 12.14 93.05 12.19L93.05 12.19Q93.05 11.45 93.17 11.11L93.17 11.11Q93.77 11.06 94.07 10.92Q94.37 10.78 94.49 10.42Q94.61 10.06 94.61 9.34L94.61 9.34L94.61 2.93Q94.61 2.23 94.49 1.87Q94.37 1.51 94.07 1.37Q93.77 1.22 93.17 1.18L93.17 1.18Q93.05 0.82 93.05 0.10L93.05 0.10Q94.58 0.14 95.74 0.14L95.74 0.14Q96.70 0.14 98.38 0.10L98.38 0.10Q98.38 0.84 98.28 1.18L98.28 1.18Q97.42 1.22 97.12 1.56Q96.82 1.90 96.82 2.93L96.82 2.93L96.82 5.86L100.56 2.81Q101.57 1.99 101.57 1.58L101.57 1.58Q101.57 1.22 100.85 1.18L100.85 1.18Q100.73 0.79 100.73 0.10L100.73 0.10Q101.69 0.14 102.94 0.14L102.94 0.14Q104.06 0.14 105.22 0.10L105.22 0.10Q105.22 0.77 105.07 1.18L105.07 1.18Q104.35 1.20 103.72 1.51Q103.08 1.82 102.05 2.59L102.05 2.59L98.81 5.35Q100.37 6.84 102.48 9.19L102.48 9.19ZM120.84 11.11Q120.96 11.47 120.96 12.19L120.96 12.19Q120.00 12.14 118.49 12.14L118.49 12.14Q116.90 12.14 115.94 12.19L115.94 12.19Q115.94 11.45 116.09 11.11L116.09 11.11Q116.64 11.04 116.87 10.91Q117.10 10.78 117.10 10.51L117.10 10.51Q117.10 10.30 116.86 9.77L116.86 9.77L116.38 8.74Q112.92 8.74 110.93 8.86L110.93 8.86L110.66 9.48Q110.42 10.03 110.42 10.34L110.42 10.34Q110.42 11.02 111.41 11.11L111.41 11.11Q111.55 11.54 111.55 12.19L111.55 12.19Q110.64 12.14 109.56 12.14L109.56 12.14Q108.62 12.14 107.86 12.19L107.86 12.19Q107.86 11.62 108.00 11.11L108.00 11.11Q108.53 11.02 108.82 10.67Q109.10 10.32 109.58 9.26L109.58 9.26L113.71 0.12Q114.17 0.02 114.67 0.02L114.67 0.02L119.09 9.19Q119.62 10.30 119.99 10.68Q120.36 11.06 120.84 11.11L120.84 11.11ZM111.41 7.75L115.90 7.75L114.46 4.73Q113.83 3.46 113.59 2.71L113.59 2.71Q113.40 3.31 113.12 3.90Q112.85 4.49 112.78 4.63L112.78 4.63L111.41 7.75ZM129.67 11.06Q130.80 11.06 131.46 10.84Q132.12 10.61 132.52 10.12Q132.91 9.62 133.27 8.74L133.27 8.74Q133.92 8.86 134.33 9.26L134.33 9.26Q133.90 10.39 133.68 12.17L133.68 12.17L129.43 12.14Q125.98 12.14 123.86 12.19L123.86 12.19Q123.86 11.45 123.98 11.11L123.98 11.11Q124.56 11.06 124.87 10.92Q125.18 10.78 125.32 10.39Q125.45 10.01 125.45 9.24L125.45 9.24L125.45 2.93Q125.45 2.23 125.32 1.87Q125.18 1.51 124.88 1.37Q124.58 1.22 123.98 1.18L123.98 1.18Q123.89 0.79 123.89 0.10L123.89 0.10Q125.62 0.14 126.55 0.14L126.55 0.14Q127.54 0.14 129.22 0.10L129.22 0.10Q129.22 0.82 129.10 1.18L129.10 1.18Q128.26 1.22 127.96 1.57Q127.66 1.92 127.66 2.95L127.66 2.95L127.66 9.19Q127.66 9.96 127.80 10.36Q127.94 10.75 128.34 10.91Q128.74 11.06 129.53 11.06L129.53 11.06L129.67 11.06ZM142.92 11.06Q144.05 11.06 144.71 10.84Q145.37 10.61 145.76 10.12Q146.16 9.62 146.52 8.74L146.52 8.74Q147.17 8.86 147.58 9.26L147.58 9.26Q147.14 10.39 146.93 12.17L146.93 12.17L142.68 12.14Q139.22 12.14 137.11 12.19L137.11 12.19Q137.11 11.45 137.23 11.11L137.23 11.11Q137.81 11.06 138.12 10.92Q138.43 10.78 138.56 10.39Q138.70 10.01 138.70 9.24L138.70 9.24L138.70 2.93Q138.70 2.23 138.56 1.87Q138.43 1.51 138.13 1.37Q137.83 1.22 137.23 1.18L137.23 1.18Q137.14 0.79 137.14 0.10L137.14 0.10Q138.86 0.14 139.80 0.14L139.80 0.14Q140.78 0.14 142.46 0.10L142.46 0.10Q142.46 0.82 142.34 1.18L142.34 1.18Q141.50 1.22 141.20 1.57Q140.90 1.92 140.90 2.95L140.90 2.95L140.90 9.19Q140.90 9.96 141.05 10.36Q141.19 10.75 141.59 10.91Q141.98 11.06 142.78 11.06L142.78 11.06L142.92 11.06Z"/></svg>